<?xml version="1.0" standalone="no"?>
<!DOCTYPE svg PUBLIC "-//W3C//DTD SVG 20010904//EN"
 "http://www.w3.org/TR/2001/REC-SVG-20010904/DTD/svg10.dtd">
<svg version="1.0" xmlns="http://www.w3.org/2000/svg"
 width="460.000000pt" height="460.000000pt" viewBox="0 0 460.000000 460.000000"
 preserveAspectRatio="xMidYMid meet">
<metadata>
Created by potrace 1.16, written by Peter Selinger 2001-2019
</metadata>
<g transform="translate(0.000000,460.000000) scale(0.100000,-0.100000)"
fill="#000000" stroke="none">
<path d="M2200 4360 l0 -50 -45 0 -45 0 0 -89 c0 -99 -9 -116 -58 -108 l-29 5
-7 -67 c-3 -36 -6 -121 -6 -188 0 -109 2 -123 18 -132 10 -6 30 -7 43 -4 29 7
15 -12 -16 -21 -11 -3 -8 -4 8 -2 21 3 27 0 23 -10 -3 -8 -1 -14 4 -14 6 0 10
-4 10 -8 0 -5 -7 -9 -15 -9 -8 0 -15 4 -15 8 0 4 -7 9 -15 13 -10 3 -15 -1
-15 -14 0 -14 8 -20 33 -22 31 -3 32 -5 35 -50 l3 -46 95 -7 94 -7 0 -44 0
-44 95 0 95 0 0 89 c0 50 -4 92 -9 95 -5 4 -48 7 -95 9 l-86 2 0 143 0 142
-45 0 -45 0 0 95 0 95 28 1 c15 1 35 1 45 0 15 -2 17 11 17 143 l0 146 -50 0
-50 0 0 -50z"/>
<path d="M1545 4122 c-3 -3 -5 -25 -5 -49 l0 -43 45 0 c42 0 45 -2 45 -27 0
-60 9 -73 51 -73 l39 0 2 -67 c0 -38 1 -77 1 -88 0 -11 -1 -46 -2 -77 l-1 -58
-44 0 -45 0 -3 -47 -3 -48 -42 -3 -43 -3 0 -45 0 -44 -50 0 -50 0 0 -44 0 -43
-77 -7 c-42 -3 -195 -6 -340 -6 l-263 0 0 -41 c0 -40 -1 -40 -32 -38 -18 1
-40 -1 -48 -5 -8 -3 -78 -7 -155 -8 l-140 -3 -3 -47 -3 -48 -50 0 -49 0 0 -46
0 -46 -40 3 c-21 2 -42 0 -46 -4 -4 -4 -26 -7 -49 -7 l-42 0 -6 -209 c-4 -115
-4 -244 0 -285 l6 -76 43 0 44 0 0 -44 0 -45 47 -3 48 -3 3 -47 3 -48 95 0 94
0 0 -44 0 -43 68 -6 c37 -4 102 -7 145 -7 l77 0 0 -45 0 -44 93 -3 92 -3 3
-47 3 -48 50 0 c51 0 53 -2 49 -52 -1 -27 1 -28 44 -28 25 0 46 -4 46 -10 0
-5 23 -10 50 -10 l50 0 0 -39 0 -38 93 -9 92 -9 3 -47 3 -48 45 0 44 0 0 -90
0 -90 -52 -2 c-29 -1 -132 -2 -228 -2 -96 -1 -181 -5 -188 -9 -6 -5 -12 -25
-12 -46 l0 -38 -89 -7 -88 -7 -7 -61 c-3 -34 -6 -76 -6 -94 l0 -34 50 0 50 0
0 -89 0 -90 48 -3 47 -3 3 -44 3 -44 45 7 c26 3 44 2 44 -4 0 -6 23 -10 50
-10 l50 0 0 -50 0 -50 45 0 45 0 1 -117 c1 -65 1 -128 1 -140 -1 -21 4 -23 43
-23 l43 0 7 -100 8 -100 43 0 44 0 0 -44 0 -45 48 -3 47 -3 3 -40 c2 -22 9
-43 15 -47 7 -4 49 -8 95 -8 47 0 83 -4 83 -10 1 -5 3 -14 4 -20 1 -5 3 -21 4
-35 1 -25 2 -25 87 -25 54 0 83 4 79 10 -3 6 -1 10 4 10 6 0 11 -4 11 -9 0 -6
21 -11 48 -13 l47 -3 3 -47 3 -48 145 0 144 0 0 51 0 50 43 -3 42 -3 3 -47 3
-48 100 0 99 0 0 48 c0 52 -4 50 78 43 7 -1 12 -17 12 -46 l0 -45 195 0 195 0
0 45 0 45 40 0 40 0 1 43 c1 23 4 89 8 147 l6 105 42 3 c42 3 42 3 45 45 l3
42 48 3 47 3 0 44 0 44 48 3 47 3 3 48 3 48 38 -2 c50 -3 61 6 61 51 l0 38 91
7 c50 4 175 4 279 0 104 -4 234 -4 289 0 l101 7 0 44 0 44 45 0 45 0 0 100 0
100 -44 0 -44 0 -7 90 -7 90 -44 0 -44 0 0 94 0 95 -42 3 -43 3 -6 105 c-4 58
-7 122 -8 142 -1 36 -2 37 -43 40 -43 3 -43 3 -48 48 l-5 45 -90 0 -90 0 -5
-45 -5 -45 -47 -3 -48 -3 0 -45 0 -44 -237 -1 c-202 -2 -288 -4 -325 -8 -4 -1
-8 -20 -10 -43 l-3 -43 -47 -3 -47 -3 -3 -96 -3 -97 -40 0 c-37 -1 -40 -3 -41
-31 -1 -16 -5 -101 -9 -187 l-8 -158 -43 0 -43 0 -3 -47 -3 -48 -140 0 -140 0
-3 92 -3 92 53 3 53 3 -3 48 -4 47 51 0 51 0 0 49 0 50 43 3 c42 3 42 3 42 43
0 40 0 40 -41 43 l-42 3 -7 94 -7 93 -89 7 -89 7 0 38 0 38 -47 4 c-27 3 -111
6 -188 8 -77 1 -162 4 -190 5 l-50 3 -7 128 c-4 70 -9 133 -12 139 -2 6 -17
10 -32 9 -16 -1 -36 -3 -45 -3 -13 -1 -16 -10 -15 -41 l2 -39 -45 -3 -46 -3
-3 -47 -3 -47 -42 -3 -42 -3 -3 -142 -3 -143 48 -2 c27 -1 155 0 286 2 l237 3
0 -52 0 -51 -184 0 c-102 0 -187 -3 -189 -7 -3 -5 -8 -47 -12 -96 l-7 -87 151
0 151 0 0 -45 0 -45 -50 0 -50 0 0 -39 c0 -38 -22 -72 -34 -52 -4 6 -19 6 -39
1 -17 -5 -71 -11 -119 -15 l-88 -7 0 -39 c0 -24 5 -39 13 -40 6 -1 19 -2 27
-3 8 -2 23 -3 33 -4 13 -2 17 -11 17 -47 l0 -45 123 0 c67 0 153 -3 190 -7
l68 -6 -3 -46 -3 -46 -41 -3 -42 -3 -7 -90 -7 -89 -94 0 -94 0 0 -44 0 -44
-91 -7 c-50 -4 -138 -4 -195 0 l-104 7 0 39 c0 39 0 39 -39 39 -43 0 -51 10
-51 65 0 33 -2 34 -42 37 l-43 3 -3 195 c-2 107 0 237 3 288 l7 92 37 0 38 0
7 77 c11 140 7 581 -6 589 -7 4 -26 8 -43 8 -28 1 -30 4 -33 44 l-3 42 40 0
c22 0 43 5 46 10 4 6 14 10 23 9 55 -5 62 0 62 41 l0 40 100 0 100 0 0 50 0
50 45 0 c42 0 45 2 45 28 0 15 3 58 7 95 l6 68 -99 -3 -99 -3 3 -41 c4 -47 -3
-54 -52 -56 -34 -1 -35 -3 -38 -42 l-3 -41 -65 -8 c-36 -4 -77 -7 -92 -7 -26
0 -28 -3 -28 -40 l0 -40 -149 0 -150 0 -3 43 -3 42 -47 3 -48 3 0 44 c0 40 -3
45 -22 45 -13 0 -74 3 -135 6 l-113 7 0 43 0 44 -105 0 -105 0 0 44 0 43 -67
6 c-38 4 -99 7 -136 7 l-69 0 3 41 c4 47 -9 59 -63 59 l-38 0 0 45 0 45 -50 0
-50 0 0 90 0 90 44 0 43 0 9 97 9 98 35 0 c49 0 60 10 60 54 l0 38 68 6 c37 4
100 7 140 7 78 0 84 4 86 59 1 34 36 43 37 9 1 -23 1 -23 9 2 7 21 8 18 11
-20 l2 -45 7 45 7 45 1 -47 2 -48 95 0 95 0 0 45 0 45 195 0 195 0 0 45 c0 42
2 45 27 45 15 0 77 5 139 11 l113 12 3 41 3 41 46 3 47 3 7 89 7 89 42 3 41 3
0 190 0 190 -40 5 -40 5 -9 92 -9 91 -96 6 c-107 6 -168 5 -176 -2z m2480
-2686 l7 -95 41 -3 c39 -3 41 -4 42 -38 0 -19 2 -61 3 -92 l2 -58 45 0 46 0
-3 -92 -3 -93 -40 0 c-39 0 -40 1 -41 38 -1 20 -3 39 -5 41 -10 9 -309 17
-385 11 l-84 -7 0 -32 c0 -50 -8 -55 -105 -58 l-90 -3 -3 -47 -3 -48 -50 0
-49 0 0 -45 0 -45 -43 0 c-24 0 -47 -3 -51 -7 -4 -4 -24 -6 -45 -4 l-39 2 2
-38 1 -38 -53 -3 -53 -3 3 42 c3 42 3 42 43 43 l40 1 5 50 5 50 43 3 c24 2 42
8 42 15 0 7 5 69 11 140 l12 127 44 0 43 0 0 50 0 50 45 0 45 0 0 95 c0 109
-11 100 112 89 l67 -7 3 -41 3 -41 98 -3 c95 -3 97 -2 98 20 3 77 1 73 52 76
l47 3 0 45 0 44 44 0 44 0 7 -94z m-1435 -1013 l0 -46 146 7 147 6 -7 -76 c-3
-43 -6 -108 -6 -146 l0 -68 -45 0 -45 0 0 95 0 95 -145 0 -145 0 0 65 c0 51
-3 65 -15 65 -8 0 -15 5 -15 10 0 6 5 10 10 10 6 0 10 7 10 15 0 12 13 15 55
15 l55 0 0 -47z"/>
<path d="M2893 4103 c-16 -6 -17 -53 -2 -53 6 0 3 -7 -5 -16 -10 -10 -16 -33
-16 -65 0 -37 -4 -49 -15 -49 -11 0 -15 -11 -15 -36 0 -20 -4 -33 -10 -29 -5
3 -7 19 -3 35 3 19 1 30 -6 30 -6 0 -11 -6 -11 -12 0 -9 -4 -8 -10 2 -7 12
-10 8 -10 -15 0 -23 3 -27 10 -15 7 11 10 12 10 2 0 -7 -7 -20 -15 -28 -9 -10
-15 -36 -16 -72 -3 -148 0 -137 -45 -140 l-41 -3 -7 -67 c-3 -37 -6 -145 -6
-239 l0 -173 50 0 50 0 0 -45 0 -45 89 0 c97 0 101 3 101 61 l0 29 95 0 95 0
0 44 0 43 79 7 c43 4 127 7 187 6 60 -1 133 -1 162 -1 l52 1 0 44 0 45 -47 3
-48 3 -3 48 -3 47 -95 0 -94 0 0 -44 0 -44 -100 -7 c-55 -4 -140 -4 -190 0
l-90 7 0 313 c0 171 -3 339 -6 372 -6 56 -8 60 -33 60 -14 0 -32 -2 -38 -4z"/>
<path d="M1530 2841 c0 -70 3 -156 6 -190 l7 -61 87 0 88 0 7 90 c4 50 4 135
0 190 l-7 100 -94 0 -94 0 0 -129z"/>
<path d="M3074 2888 c3 -45 5 -86 6 -90 0 -6 114 -18 215 -21 l50 -2 3 -42 3
-42 47 -3 47 -3 3 -47 3 -47 47 -3 47 -3 3 -47 3 -48 45 0 44 0 0 -50 0 -50
45 0 45 0 0 -45 0 -45 53 0 53 0 2 103 c2 56 0 141 -4 190 l-6 87 -44 0 -43 0
-3 48 -3 47 -47 3 -48 3 0 43 0 43 -67 6 c-38 4 -101 7 -140 7 l-73 0 0 39 c0
22 -5 41 -12 43 -7 2 -73 5 -147 7 l-133 3 6 -84z"/>
<path d="M2877 2524 c-9 -89 -9 -339 -1 -437 l7 -77 43 0 44 0 0 -45 0 -45 44
0 44 0 7 98 c7 90 2 549 -6 557 -2 1 -43 6 -90 10 l-86 7 -6 -68z"/>
<path d="M2485 2190 c-4 -6 -10 -8 -15 -5 -5 3 -14 -4 -20 -15 -13 -23 -32
-18 -23 7 4 11 2 14 -8 11 -11 -4 -15 -41 -17 -185 l-3 -180 87 -7 c57 -5 90
-4 97 3 6 6 30 11 54 11 l43 0 0 42 c0 33 -6 47 -25 64 -21 18 -23 23 -10 28
9 3 13 2 10 -4 -3 -6 -1 -10 4 -10 6 0 11 14 11 30 0 28 -2 30 -40 30 l-40 0
0 58 c0 31 -3 74 -6 95 -6 36 -8 37 -50 37 -23 0 -46 -5 -49 -10z"/>
</g>
</svg>
